<svg width="41" height="40" viewBox="0 0 41 40" fill="none" xmlns="http://www.w3.org/2000/svg">
<mask id="mask0_373_6552" style="mask-type:alpha" maskUnits="userSpaceOnUse" x="4" y="4" width="33" height="32">
<path fill-rule="evenodd" clip-rule="evenodd" d="M19.5 35C19.5 35.5523 19.9477 36 20.5 36C21.0523 36 21.5 35.5523 21.5 35V21H35.5C36.0523 21 36.5 20.5523 36.5 20C36.5 19.4477 36.0523 19 35.5 19H21.5V5C21.5 4.44772 21.0523 4 20.5 4C19.9477 4 19.5 4.44772 19.5 5V19H5.5C4.94772 19 4.5 19.4477 4.5 20C4.5 20.5523 4.94772 21 5.5 21H19.5V35Z" fill="#140E17"/>
</mask>
<g mask="url(#mask0_373_6552)">
<rect x="0.5" width="40" height="40" fill="#A24DE8"/>
</g>
</svg>
