<svg width="24" height="24" viewBox="0 0 24 24" fill="none" xmlns="http://www.w3.org/2000/svg">
<mask id="mask0_79_513" style="mask-type:alpha" maskUnits="userSpaceOnUse" x="5" y="8" width="14" height="8">
<path d="M6.64018 15.2682C6.21591 15.6218 5.58534 15.5645 5.23178 15.1402C4.87821 14.7159 4.93554 14.0853 5.35982 13.7318L6.64018 15.2682ZM12 9.5L11.3598 8.73178C11.7307 8.42274 12.2693 8.42274 12.6402 8.73178L12 9.5ZM18.6402 13.7318C19.0645 14.0853 19.1218 14.7159 18.7682 15.1402C18.4147 15.5645 17.7841 15.6218 17.3598 15.2682L18.6402 13.7318ZM5.35982 13.7318L11.3598 8.73178L12.6402 10.2682L6.64018 15.2682L5.35982 13.7318ZM12.6402 8.73178L18.6402 13.7318L17.3598 15.2682L11.3598 10.2682L12.6402 8.73178Z" fill="#140E17"/>
</mask>
<g mask="url(#mask0_79_513)">
<rect width="24" height="24" fill="#140E17"/>
</g>
</svg>
