<svg width="24" height="24" viewBox="0 0 24 24" fill="none" xmlns="http://www.w3.org/2000/svg">
<mask id="mask0_73_500" style="mask-type:alpha" maskUnits="userSpaceOnUse" x="8" y="5" width="8" height="14">
<path d="M15.2682 6.64018C15.6218 6.21591 15.5645 5.58534 15.1402 5.23178C14.7159 4.87821 14.0853 4.93554 13.7318 5.35982L15.2682 6.64018ZM9.5 12L8.73178 11.3598C8.42274 11.7307 8.42274 12.2693 8.73178 12.6402L9.5 12ZM13.7318 18.6402C14.0853 19.0645 14.7159 19.1218 15.1402 18.7682C15.5645 18.4147 15.6218 17.7841 15.2682 17.3598L13.7318 18.6402ZM13.7318 5.35982L8.73178 11.3598L10.2682 12.6402L15.2682 6.64018L13.7318 5.35982ZM8.73178 12.6402L13.7318 18.6402L15.2682 17.3598L10.2682 11.3598L8.73178 12.6402Z" fill="#140E17"/>
</mask>
<g mask="url(#mask0_73_500)">
<rect width="24" height="24" fill="#140E17"/>
</g>
</svg>
