<svg width="24" height="24" viewBox="0 0 24 24" fill="none" xmlns="http://www.w3.org/2000/svg">
<mask id="mask0_253_3530" style="mask-type:alpha" maskUnits="userSpaceOnUse" x="4" y="5" width="16" height="14">
<path fill-rule="evenodd" clip-rule="evenodd" d="M11.2682 6.64018C11.6218 6.2159 11.5645 5.58534 11.1402 5.23177C10.7159 4.87821 10.0853 4.93553 9.73178 5.35981L4.73178 11.3598C4.42274 11.7307 4.42274 12.2693 4.73178 12.6402L9.73178 18.6402C10.0853 19.0645 10.7159 19.1218 11.1402 18.7682C11.5645 18.4147 11.6218 17.7841 11.2682 17.3598L6.80171 12L11.2682 6.64018ZM19.2682 6.64018C19.6218 6.21591 19.5645 5.58534 19.1402 5.23178C18.7159 4.87821 18.0853 4.93554 17.7318 5.35982L12.7318 11.3598C12.4227 11.7307 12.4227 12.2693 12.7318 12.6402L17.7318 18.6402C18.0853 19.0645 18.7159 19.1218 19.1402 18.7682C19.5645 18.4147 19.6218 17.7841 19.2682 17.3598L14.8017 12L19.2682 6.64018Z" fill="#140E17"/>
</mask>
<g mask="url(#mask0_253_3530)">
<rect width="24" height="24" fill="#140E17"/>
</g>
</svg>
