<svg width="24" height="24" viewBox="0 0 24 24" fill="none" xmlns="http://www.w3.org/2000/svg">
<mask id="mask0_253_3538" style="mask-type:alpha" maskUnits="userSpaceOnUse" x="4" y="5" width="16" height="14">
<path fill-rule="evenodd" clip-rule="evenodd" d="M12.7318 6.64018C12.3782 6.2159 12.4356 5.58534 12.8598 5.23177C13.2841 4.87821 13.9147 4.93553 14.2682 5.35981L19.2682 11.3598C19.5773 11.7307 19.5773 12.2693 19.2682 12.6402L14.2682 18.6402C13.9147 19.0645 13.2841 19.1218 12.8598 18.7682C12.4356 18.4147 12.3782 17.7841 12.7318 17.3598L17.1983 12L12.7318 6.64018ZM4.7318 6.64018C4.37824 6.21591 4.43556 5.58534 4.85984 5.23178C5.28412 4.87821 5.91468 4.93554 6.26825 5.35982L11.2682 11.3598C11.5773 11.7307 11.5773 12.2693 11.2682 12.6402L6.26825 18.6402C5.91468 19.0645 5.28412 19.1218 4.85984 18.7682C4.43556 18.4147 4.37824 17.7841 4.7318 17.3598L9.19832 12L4.7318 6.64018Z" fill="#140E17"/>
</mask>
<g mask="url(#mask0_253_3538)">
<rect width="24" height="24" fill="#140E17"/>
</g>
</svg>
