<svg width="24" height="24" viewBox="0 0 24 24" fill="none" xmlns="http://www.w3.org/2000/svg">
<mask id="mask0_73_505" style="mask-type:alpha" maskUnits="userSpaceOnUse" x="8" y="5" width="8" height="14">
<path d="M8.73178 6.64018C8.37821 6.21591 8.43554 5.58534 8.85982 5.23178C9.28409 4.87821 9.91466 4.93554 10.2682 5.35982L8.73178 6.64018ZM14.5 12L15.2682 11.3598C15.5773 11.7307 15.5773 12.2693 15.2682 12.6402L14.5 12ZM10.2682 18.6402C9.91466 19.0645 9.28409 19.1218 8.85982 18.7682C8.43554 18.4147 8.37822 17.7841 8.73178 17.3598L10.2682 18.6402ZM10.2682 5.35982L15.2682 11.3598L13.7318 12.6402L8.73178 6.64018L10.2682 5.35982ZM15.2682 12.6402L10.2682 18.6402L8.73178 17.3598L13.7318 11.3598L15.2682 12.6402Z" fill="#140E17"/>
</mask>
<g mask="url(#mask0_73_505)">
<rect width="24" height="24" fill="#140E17"/>
</g>
</svg>
