<svg width="32" height="32" viewBox="0 0 32 32" fill="none" xmlns="http://www.w3.org/2000/svg">
<mask id="mask0_7_825" style="mask-type:alpha" maskUnits="userSpaceOnUse" x="4" y="10" width="24" height="12">
<path d="M4 11C4 10.4477 4.44772 10 5 10H27C27.5523 10 28 10.4477 28 11C28 11.5523 27.5523 12 27 12H5C4.44772 12 4 11.5523 4 11Z" fill="#140E17"/>
<path d="M4 21C4 20.4477 4.44772 20 5 20H27C27.5523 20 28 20.4477 28 21C28 21.5523 27.5523 22 27 22H5C4.44772 22 4 21.5523 4 21Z" fill="#140E17"/>
</mask>
<g mask="url(#mask0_7_825)">
<rect width="32" height="32" fill="#140E17"/>
</g>
</svg>
