<svg width="24" height="24" viewBox="0 0 24 24" fill="none" xmlns="http://www.w3.org/2000/svg">
<mask id="mask0_609_6415" style="mask-type:alpha" maskUnits="userSpaceOnUse" x="3" y="2" width="18" height="20">
<path d="M5.69998 9.11999C6.27987 9.11999 6.74998 9.59009 6.74998 10.17V19.68H17.25V10.17C17.25 9.5901 17.7201 9.11999 18.3 9.11999C18.8799 9.11999 19.35 9.59009 19.35 10.17V20.64C19.35 21.1702 18.8799 21.6 18.3 21.6H5.69998C5.12008 21.6 4.64998 21.1702 4.64998 20.64V10.17C4.64998 9.5901 5.12008 9.11999 5.69998 9.11999ZM9.89998 9.11999C10.4799 9.11999 10.95 9.59009 10.95 10.17V16.71C10.95 17.2899 10.4799 17.76 9.89998 17.76C9.32008 17.76 8.84998 17.2899 8.84998 16.71V10.17C8.84998 9.5901 9.32008 9.11999 9.89998 9.11999ZM14.1 9.11999C14.6799 9.11999 15.15 9.59009 15.15 10.17V16.71C15.15 17.2899 14.6799 17.76 14.1 17.76C13.5201 17.76 13.05 17.2899 13.05 16.71V10.17C13.05 9.5901 13.5201 9.11999 14.1 9.11999ZM15.15 2.39999C15.6019 2.39999 16.0032 2.66441 16.1461 3.05642L16.956 5.27903L19.4401 5.27973C19.9703 5.27987 20.4 5.7097 20.4 6.23986C20.4 6.77013 19.9701 7.19999 19.4398 7.19999H4.56011C4.02984 7.19999 3.59998 6.77013 3.59998 6.23986C3.59998 5.7097 4.02968 5.27987 4.55984 5.27973L7.04293 5.27903L7.85386 3.05642C7.99678 2.66441 8.39802 2.39999 8.84998 2.39999H15.15ZM14.3932 4.31999H9.60677L9.25633 5.27903H14.7426L14.3932 4.31999Z" fill="#140E17"/>
</mask>
<g mask="url(#mask0_609_6415)">
<rect width="24" height="24" fill="#E22929"/>
</g>
</svg>
