<svg width="24" height="24" viewBox="0 0 24 24" fill="none" xmlns="http://www.w3.org/2000/svg">
<mask id="mask0_7_973" style="mask-type:alpha" maskUnits="userSpaceOnUse" x="5" y="2" width="14" height="20">
<path fill-rule="evenodd" clip-rule="evenodd" d="M17.3598 8.76822C17.7841 9.12179 18.4147 9.06446 18.7682 8.64019C19.1218 8.21591 19.0645 7.58534 18.6402 7.23178L12.6402 2.23178C12.2693 1.92274 11.7307 1.92274 11.3598 2.23178L5.35981 7.23178C4.93553 7.58535 4.87821 8.21591 5.23177 8.64019C5.58534 9.06446 6.2159 9.12179 6.64018 8.76822L12 4.30171L17.3598 8.76822ZM6.64018 15.2318C6.2159 14.8782 5.58534 14.9355 5.23177 15.3598C4.87821 15.7841 4.93553 16.4147 5.35981 16.7682L11.3598 21.7682C11.7307 22.0773 12.2693 22.0773 12.6402 21.7682L18.6402 16.7682C19.0645 16.4147 19.1218 15.7841 18.7682 15.3598C18.4147 14.9355 17.7841 14.8782 17.3598 15.2318L12 19.6983L6.64018 15.2318Z" fill="#140E17"/>
</mask>
<g mask="url(#mask0_7_973)">
<rect width="24" height="24" fill="#140E17"/>
</g>
</svg>
