<svg width="24" height="24" viewBox="0 0 24 24" fill="none" xmlns="http://www.w3.org/2000/svg">
<mask id="mask0_7_976" style="mask-type:alpha" maskUnits="userSpaceOnUse" x="2" y="2" width="21" height="21">
<path fill-rule="evenodd" clip-rule="evenodd" d="M18.5685 2.29289C18.178 1.90237 17.5448 1.90237 17.1543 2.29289L14.7126 4.73455C14.3221 5.12508 14.3221 5.75824 14.7126 6.14876L17.8548 9.29092C18.2453 9.68144 18.8785 9.68144 19.269 9.29092L21.7106 6.84926C22.1012 6.45873 22.1012 5.82557 21.7106 5.43504L18.5685 2.29289ZM16.8339 5.44166L17.8614 4.41421L19.5893 6.14215L18.5619 7.1696L16.8339 5.44166ZM14.2557 6.60604C13.8652 6.21551 13.232 6.21551 12.8415 6.60604L3.14331 16.3042C3.00671 16.4408 2.9126 16.6141 2.87235 16.803L2.02196 20.7956C1.95137 21.127 2.05341 21.4716 2.29305 21.7111C2.5327 21.9507 2.87735 22.0526 3.20873 21.9819L7.20339 21.1293C7.39219 21.0891 7.56528 20.995 7.70179 20.8585L17.3979 11.1624C17.5854 10.9749 17.6908 10.7205 17.6908 10.4553C17.6908 10.1901 17.5854 9.93572 17.3979 9.74819L14.2557 6.60604ZM4.76681 17.5092L13.5486 8.72736L15.2765 10.4553L6.49671 19.2351L4.2993 19.7041L4.76681 17.5092Z" fill="black"/>
</mask>
<g mask="url(#mask0_7_976)">
<rect width="24" height="24" fill="#140E17"/>
</g>
</svg>
