<svg width="24" height="24" viewBox="0 0 24 24" fill="none" xmlns="http://www.w3.org/2000/svg">
<mask id="mask0_7_993" style="mask-type:alpha" maskUnits="userSpaceOnUse" x="1" y="1" width="22" height="22">
<path d="M22 9.38694V10.3869H23V9.38694H22ZM2 9.38694H1V10.3869H2V9.38694ZM2 13.3224V12.3224H1V13.3224H2ZM22 13.3224H23V12.3224H22V13.3224ZM1.87868 1.87868C1.36902 2.38834 1.17027 3.01669 1.08214 3.67221C0.997876 4.29896 1 5.08546 1 6H3C3 5.02892 3.00212 4.40121 3.06431 3.9387C3.12262 3.50496 3.21677 3.36902 3.29289 3.29289L1.87868 1.87868ZM6 1C5.08546 1 4.29896 0.997876 3.67221 1.08214C3.01669 1.17027 2.38834 1.36902 1.87868 1.87868L3.29289 3.29289C3.36902 3.21677 3.50496 3.12262 3.9387 3.06431C4.40121 3.00212 5.02892 3 6 3V1ZM18 1H6V3H18V1ZM22.1213 1.87868C21.6117 1.36902 20.9833 1.17027 20.3278 1.08214C19.701 0.997876 18.9145 1 18 1V3C18.9711 3 19.5988 3.00212 20.0613 3.06431C20.495 3.12262 20.631 3.21677 20.7071 3.29289L22.1213 1.87868ZM23 6C23 5.08546 23.0021 4.29896 22.9179 3.67221C22.8297 3.01669 22.631 2.38834 22.1213 1.87868L20.7071 3.29289C20.7832 3.36902 20.8774 3.50496 20.9357 3.9387C20.9979 4.40121 21 5.02892 21 6H23ZM23 9.38694V6H21V9.38694H23ZM2 10.3869H22V8.38694H2V10.3869ZM1 6V9.38694H3V6H1ZM1 13.3224V18H3V13.3224H1ZM1 18C1 18.9145 0.997876 19.701 1.08214 20.3278C1.17027 20.9833 1.36902 21.6117 1.87868 22.1213L3.29289 20.7071C3.21677 20.631 3.12262 20.495 3.06431 20.0613C3.00212 19.5988 3 18.9711 3 18H1ZM1.87868 22.1213C2.38834 22.631 3.01669 22.8297 3.67221 22.9179C4.29896 23.0021 5.08546 23 6 23V21C5.02892 21 4.40121 20.9979 3.9387 20.9357C3.50496 20.8774 3.36902 20.7832 3.29289 20.7071L1.87868 22.1213ZM6 23H18V21H6V23ZM18 23C18.9145 23 19.701 23.0021 20.3278 22.9179C20.9833 22.8297 21.6117 22.631 22.1213 22.1213L20.7071 20.7071C20.631 20.7832 20.495 20.8774 20.0613 20.9357C19.5988 20.9979 18.9711 21 18 21V23ZM22.1213 22.1213C22.631 21.6117 22.8297 20.9833 22.9179 20.3278C23.0021 19.701 23 18.9145 23 18H21C21 18.9711 20.9979 19.5988 20.9357 20.0613C20.8774 20.495 20.7832 20.631 20.7071 20.7071L22.1213 22.1213ZM23 18V13.3224H21V18H23ZM22 12.3224H2V14.3224H22V12.3224Z" fill="#140E17"/>
</mask>
<g mask="url(#mask0_7_993)">
<rect width="24" height="24" fill="#140E17"/>
</g>
</svg>
