<svg width="24" height="24" viewBox="0 0 24 24" fill="none" xmlns="http://www.w3.org/2000/svg">
<mask id="mask0_7_984" style="mask-type:alpha" maskUnits="userSpaceOnUse" x="1" y="5" width="22" height="14">
<path fill-rule="evenodd" clip-rule="evenodd" d="M3.75571 12.277C3.66855 12.1778 3.5888 12.0849 3.51679 11.9995C3.5888 11.9141 3.66855 11.8212 3.75571 11.722C4.22627 11.1862 4.90641 10.4729 5.74361 9.76205C6.19274 9.38072 6.6771 9.00856 7.18976 8.66722C6.8934 9.31678 6.72821 10.0382 6.72821 10.7996C6.72821 13.6871 9.10394 15.9992 11.999 15.9992C14.8941 15.9992 17.2698 13.6871 17.2698 10.7996C17.2698 10.0382 17.1046 9.31672 16.8082 8.66714C17.3209 9.00851 17.8053 9.38069 18.2545 9.76205C19.0917 10.4729 19.7718 11.1862 20.2424 11.722C20.3296 11.8212 20.4093 11.9141 20.4813 11.9995C20.4093 12.0849 20.3296 12.1778 20.2424 12.277C19.7718 12.8128 19.0917 13.5261 18.2545 14.237C16.5502 15.684 14.3384 16.999 11.9991 16.999C9.65972 16.999 7.44794 15.684 5.74361 14.237C4.90641 13.5261 4.22627 12.8128 3.75571 12.277ZM22.5688 11.4102C22.569 11.4104 22.5692 11.4107 21.7609 11.9995C22.5692 12.5883 22.569 12.5886 22.5688 12.5888L22.5683 12.5895L22.567 12.5913L22.5632 12.5964L22.5509 12.6131C22.5406 12.627 22.526 12.6465 22.5073 12.6712C22.4699 12.7205 22.4159 12.7906 22.3462 12.8785C22.207 13.0542 22.0044 13.3016 21.7451 13.5968C21.2277 14.1859 20.4783 14.9725 19.549 15.7615C17.7202 17.3143 15.051 18.999 11.9991 18.999C8.94707 18.999 6.27794 17.3143 4.44916 15.7615C3.51982 14.9725 2.77037 14.1859 2.25298 13.5968C1.99369 13.3016 1.79115 13.0542 1.65187 12.8785C1.5822 12.7906 1.52825 12.7205 1.49085 12.6712C1.47214 12.6465 1.45756 12.627 1.44721 12.6131L1.43487 12.5964L1.4311 12.5913L1.42982 12.5895L1.42933 12.5888C1.42912 12.5886 1.42894 12.5883 2.23721 11.9995C1.42894 11.4107 1.42912 11.4104 1.42933 11.4102L1.42982 11.4095L1.4311 11.4077L1.43487 11.4026L1.44721 11.3859C1.45756 11.372 1.47214 11.3525 1.49085 11.3278C1.52825 11.2785 1.5822 11.2084 1.65187 11.1205C1.79115 10.9448 1.99369 10.6974 2.25298 10.4022C2.77037 9.81308 3.51982 9.0265 4.44916 8.23745C6.27794 6.68475 8.94707 5 11.9991 5C15.051 5 17.7202 6.68475 19.549 8.23745C20.4783 9.0265 21.2277 9.81308 21.7451 10.4022C22.0044 10.6974 22.207 10.9448 22.3462 11.1205C22.4159 11.2084 22.4699 11.2785 22.5073 11.3278C22.526 11.3525 22.5406 11.372 22.5509 11.3859L22.5632 11.4026L22.567 11.4077L22.5683 11.4095L22.5688 11.4102ZM21.7609 11.9995L22.5692 11.4107L22.9981 11.9995L22.5692 12.5883L21.7609 11.9995ZM1.42894 11.4107L2.23721 11.9995L1.42894 12.5883L1 11.9995L1.42894 11.4107ZM8.72821 10.7996C8.72821 9.04825 10.1767 7.59995 11.999 7.59995C13.8213 7.59995 15.2698 9.04825 15.2698 10.7996C15.2698 12.5509 13.8213 13.9992 11.999 13.9992C10.1767 13.9992 8.72821 12.5509 8.72821 10.7996Z" fill="black"/>
</mask>
<g mask="url(#mask0_7_984)">
<rect width="24" height="24" fill="#140E17"/>
</g>
</svg>
