<svg width="20" height="20" viewBox="0 0 20 20" fill="#140E17" xmlns="http://www.w3.org/2000/svg">
<mask id="mask0_3806_7219" style="mask-type:alpha" maskUnits="userSpaceOnUse" x="0" y="5" width="20" height="10">
<path fill-rule="evenodd" clip-rule="evenodd" d="M3.39771 6.20931C3.14502 5.71822 2.54207 5.52495 2.05098 5.77764C1.5599 6.03033 1.36663 6.63328 1.61932 7.12437C1.76801 7.41333 1.93546 7.69239 2.12021 7.96055L0.994031 9.00127C0.58842 9.3761 0.557268 10.0144 0.92445 10.4269C1.29163 10.8395 1.91811 10.8701 2.32372 10.4952L3.45058 9.45389C3.96221 9.90519 4.53423 10.302 5.15391 10.6357L4.58435 12.0719C4.38075 12.5853 4.62969 13.1719 5.14037 13.3822C5.65106 13.5925 6.2301 13.3468 6.4337 12.8334L7.00289 11.3982C7.65143 11.592 8.33091 11.7244 9.03112 11.7885L9.03475 13.3348C9.03604 13.887 9.4848 14.3337 10.0371 14.3323C10.5894 14.331 11.036 13.8822 11.0347 13.3299L11.0311 11.7836C11.7052 11.7185 12.3598 11.5902 12.9857 11.4046L13.5557 12.8418C13.7593 13.3552 14.3383 13.6009 14.849 13.3906C15.3597 13.1803 15.6086 12.5937 15.405 12.0803L14.8363 10.6463C15.4586 10.3131 16.0332 9.91631 16.5471 9.4647L17.6754 10.5074C18.0811 10.8822 18.7075 10.8517 19.0747 10.4391C19.4419 10.0266 19.4107 9.38828 19.0051 9.01345L17.8804 7.97408C18.0689 7.70178 18.2395 7.41819 18.3906 7.12437C18.6433 6.63328 18.4501 6.03033 17.959 5.77764C17.4679 5.52495 16.8649 5.71822 16.6123 6.20931C15.5444 8.28473 13.0352 9.8328 10.005 9.8328C6.97473 9.8328 4.46561 8.28473 3.39771 6.20931Z"/>
</mask>
<g mask="url(#mask0_3806_7219)">
<rect width="20" height="20" />
</g>
</svg>
