<svg width="24" height="24" viewBox="0 0 24 24" fill="none" xmlns="http://www.w3.org/2000/svg">
<mask id="mask0_3847_11317" style="mask-type:alpha" maskUnits="userSpaceOnUse" x="1" y="7" width="22" height="10">
<path fill-rule="evenodd" clip-rule="evenodd" d="M3.89942 7.54268C3.64674 7.05159 3.04379 6.85833 2.5527 7.11102C2.06161 7.3637 1.86835 7.96665 2.12104 8.45774C2.32176 8.84783 2.55179 9.22277 2.80852 9.58073L1.32582 10.9509C0.920207 11.3258 0.889055 11.9641 1.25624 12.3766C1.62342 12.7891 2.24989 12.8197 2.6555 12.4449L4.13889 11.0741C4.81681 11.6939 5.59021 12.231 6.43673 12.6699L5.68617 14.5624C5.48257 15.0758 5.73151 15.6624 6.24219 15.8727C6.75287 16.083 7.33192 15.8373 7.53552 15.3239L8.28563 13.4325C9.15866 13.7081 10.0818 13.8889 11.0369 13.9623L11.0417 16.0012C11.043 16.5535 11.4918 17.0001 12.044 16.9988C12.5963 16.9975 13.043 16.5486 13.0417 15.9964L13.0369 13.9574C13.9608 13.8818 14.8542 13.7057 15.7008 13.4405L16.4517 15.334C16.6553 15.8474 17.2344 16.0931 17.7451 15.8828C18.2558 15.6725 18.5047 15.0859 18.3011 14.5725L17.5514 12.6822C18.4012 12.2442 19.1778 11.7073 19.8586 11.0873L21.3435 12.4595C21.7491 12.8343 22.3756 12.8038 22.7428 12.3912C23.11 11.9787 23.0788 11.3404 22.6732 10.9655L21.192 9.59671C21.4533 9.23393 21.6872 8.85364 21.8909 8.45774C22.1436 7.96665 21.9504 7.3637 21.4593 7.11102C20.9682 6.85833 20.3652 7.05159 20.1126 7.54268C18.7923 10.1086 15.7068 11.9994 12.006 11.9994C8.30513 11.9994 5.21968 10.1086 3.89942 7.54268Z" fill="black"/>
</mask>
<g mask="url(#mask0_3847_11317)">
<rect width="24" height="24" fill="#140E17"/>
</g>
</svg>
