<svg width="24" height="24" viewBox="0 0 24 24" fill="none" xmlns="http://www.w3.org/2000/svg">
<mask id="mask0_7_982" style="mask-type:alpha" maskUnits="userSpaceOnUse" x="2" y="7" width="20" height="10">
<path d="M12.9022 13.8106C12.9022 14.5269 12.9022 15.168 12.9022 15.8199C12.903 16.0881 12.8436 16.3532 12.7282 16.5971C12.6429 16.7578 12.4999 16.8829 12.3261 16.9488C12.1522 17.0148 11.9594 17.0171 11.7839 16.9552C11.5873 16.9081 11.4131 16.7977 11.29 16.6422C11.1668 16.4866 11.102 16.2951 11.1063 16.0992C11.0878 15.3578 11.1063 14.6165 11.1063 13.8142C10.4509 13.6745 9.83622 13.5384 9.21784 13.4166C8.92161 13.3593 8.76979 13.5133 8.67722 13.7748C8.49948 14.2798 8.30693 14.7776 8.11438 15.2755C8.06692 15.4162 8.01002 15.5538 7.94405 15.6874C7.65522 16.2246 7.30345 16.3822 6.83318 16.1888C6.72509 16.1494 6.62634 16.0892 6.54282 16.0121C6.4593 15.9349 6.39273 15.8422 6.3471 15.7395C6.30147 15.6369 6.27772 15.5264 6.27725 15.4146C6.27679 15.3029 6.29963 15.1922 6.3444 15.0892C6.58509 14.3908 6.87021 13.7031 7.13312 13.0083C7.15198 12.9327 7.16681 12.8562 7.17755 12.7791L5.32611 11.7046L4.40409 12.686C4.19293 12.9363 3.96796 13.1754 3.73016 13.4023C3.57897 13.5318 3.38269 13.6013 3.18075 13.5966C2.97881 13.592 2.78617 13.5136 2.64151 13.3772C2.48834 13.2528 2.38947 13.077 2.36475 12.885C2.34002 12.693 2.39127 12.4991 2.50821 12.3421C2.85297 11.8901 3.22385 11.4572 3.61908 11.0456C3.68584 10.9965 3.73996 10.9331 3.77722 10.8604C3.81448 10.7877 3.83386 10.7077 3.83386 10.6265C3.83386 10.5454 3.81448 10.4654 3.77722 10.3927C3.73996 10.32 3.68584 10.2566 3.61908 10.2075C3.12289 9.64518 2.66373 9.05064 2.21939 8.43818C2.10568 8.31754 2.03216 8.16659 2.00838 8.00497C1.98461 7.84336 2.01168 7.67856 2.08608 7.53203C2.47489 6.85869 3.02291 6.81571 3.54132 7.45324C4.08133 8.1735 4.66623 8.86125 5.29278 9.51266C6.70471 10.8556 8.51896 11.733 10.4768 12.0198C13.8279 12.5391 16.6273 11.4933 18.9935 9.25479C19.5253 8.68207 20.02 8.07801 20.4746 7.44607C20.956 6.86227 21.4633 6.89451 21.8743 7.50338C21.9677 7.64225 22.011 7.80706 21.9976 7.9722C21.9842 8.13734 21.9148 8.29359 21.8002 8.41669C21.3781 8.979 20.9264 9.54132 20.5042 10.1108C20.3783 10.272 20.2413 10.426 20.0747 10.6265C20.519 11.1566 20.9449 11.6509 21.3559 12.1595C21.7669 12.6681 21.7558 13.0334 21.3929 13.3342C20.9523 13.6924 20.545 13.6924 20.108 13.2483C19.6711 12.8042 19.2267 12.2633 18.7306 11.7046L16.8088 12.7791C17.0791 13.5133 17.3346 14.2117 17.5864 14.8994C17.66 15.0614 17.7099 15.2326 17.7345 15.408C17.7237 15.6012 17.6498 15.7862 17.5234 15.9362C17.3969 16.0862 17.2245 16.1934 17.0309 16.2425C16.8479 16.2873 16.6542 16.2648 16.4874 16.1795C16.3205 16.0941 16.1922 15.952 16.1274 15.7805C15.8435 15.1594 15.5963 14.5232 15.3868 13.8751C15.2572 13.4811 15.0795 13.3414 14.6463 13.4524C14.0723 13.6064 13.5095 13.6996 12.9022 13.8106Z" fill="#140E17"/>
</mask>
<g mask="url(#mask0_7_982)">
<rect width="24" height="24" fill="#140E17"/>
</g>
</svg>
