<svg width="20" height="20" viewBox="0 0 20 20" fill="none" xmlns="http://www.w3.org/2000/svg">
<mask id="mask0_1084_7278" style="mask-type:alpha" maskUnits="userSpaceOnUse" x="2" y="2" width="16" height="17">
<path d="M3.53846 3C3.24108 3 3 3.24143 3 3.53925C3 6.04858 4.42622 8.22431 6.51114 9.2978C7.33864 9.72387 8 10.5031 8 11.4338V15.9967C8 16.826 8.94896 17.296 9.60704 16.7925L11.607 15.2625C11.8547 15.0731 12 14.7788 12 14.4667V11.4338C12 10.503 12.6614 9.72387 13.4889 9.2978C15.5738 8.22431 17 6.04858 17 3.53925C17 3.24143 16.7589 3 16.4615 3H3.53846Z" stroke="black" stroke-width="2"/>
</mask>
<g mask="url(#mask0_1084_7278)">
<rect width="20" height="20" fill="#140E17"/>
</g>
</svg>
