<svg width="40" height="40" viewBox="0 0 40 40" fill="none" xmlns="http://www.w3.org/2000/svg">
<mask id="mask0_7_952" style="mask-type:alpha" maskUnits="userSpaceOnUse" x="5" y="5" width="31" height="30">
<path d="M5 20C5 22.5723 5.64699 24.9929 6.78764 27.1085C9.32117 31.8072 14.2881 35 20.0004 35C23.5551 35 26.8205 33.7637 29.391 31.6975C32.0341 29.5728 33.9421 26.5703 34.6723 23.1318C34.8874 22.1214 35.0003 21.0738 35.0003 19.9999C35.0003 19.0422 34.9105 18.1051 34.7382 17.1978H20.3301V23.1318H28.351C27.629 25.0588 26.2584 26.6684 24.5045 27.6969C23.1834 28.4725 21.6438 28.9168 20.0004 28.9168C16.1771 28.9168 12.9154 26.5102 11.6486 23.1294C11.2827 22.1561 11.0833 21.1011 11.0831 20C11.0831 18.9855 11.2529 18.0105 11.5645 17.1022C12.7678 13.6003 16.0897 11.0832 19.9996 11.0832C21.7311 11.0832 23.3474 11.5769 24.7147 12.4316L29.574 8.45328C26.9762 6.29645 23.6391 5 19.9996 5C14.2023 5 9.17363 8.2885 6.67719 13.1017C5.60492 15.1671 5 17.5127 5 20Z" fill="#A24DE8"/>
</mask>
<g mask="url(#mask0_7_952)">
<rect width="40" height="40" fill="#A24DE8"/>
</g>
</svg>
