<svg width="32" height="32" viewBox="0 0 32 32" fill="none" xmlns="http://www.w3.org/2000/svg">
<mask id="mask0_354_2791" style="mask-type:alpha" maskUnits="userSpaceOnUse" x="0" y="0" width="32" height="32">
<path fill-rule="evenodd" clip-rule="evenodd" d="M16 2.33334C8.45211 2.33334 2.33333 8.45212 2.33333 16C2.33333 23.5479 8.45211 29.6667 16 29.6667C23.5479 29.6667 29.6667 23.5479 29.6667 16C29.6667 8.45212 23.5479 2.33334 16 2.33334ZM0.333332 16C0.333332 7.34755 7.34754 0.333344 16 0.333344C24.6525 0.333344 31.6667 7.34755 31.6667 16C31.6667 24.6525 24.6525 31.6667 16 31.6667C7.34754 31.6667 0.333332 24.6525 0.333332 16ZM17.3333 22.6667C17.3333 23.4031 16.7364 24 16 24C15.2636 24 14.6667 23.4031 14.6667 22.6667C14.6667 21.9303 15.2636 21.3333 16 21.3333C16.7364 21.3333 17.3333 21.9303 17.3333 22.6667ZM15.8208 7.66668C13.5266 7.66668 11.6667 9.52657 11.6667 11.8209C11.6667 12.3731 12.1144 12.8209 12.6667 12.8209C13.219 12.8209 13.6667 12.3731 13.6667 11.8209C13.6667 10.6311 14.6311 9.66668 15.8208 9.66668H16.3001C17.423 9.66668 18.3333 10.577 18.3333 11.6999V12.176C18.3333 12.7799 17.9417 13.314 17.3659 13.4957C15.9576 13.9398 15 15.246 15 16.7226V18C15 18.5523 15.4477 19 16 19C16.5523 19 17 18.5523 17 18V16.7226C17 16.1188 17.3916 15.5847 17.9675 15.403C19.3757 14.9588 20.3333 13.6527 20.3333 12.176V11.6999C20.3333 9.4724 18.5276 7.66668 16.3001 7.66668H15.8208Z" fill="#140E17"/>
</mask>
<g mask="url(#mask0_354_2791)">
<rect width="32" height="32" fill="#140E17"/>
</g>
</svg>
