<svg width="24" height="24" viewBox="0 0 24 24" fill="none" xmlns="http://www.w3.org/2000/svg">
<mask id="mask0_7_998" style="mask-type:alpha" maskUnits="userSpaceOnUse" x="0" y="0" width="24" height="24">
<path fill-rule="evenodd" clip-rule="evenodd" d="M12 2C6.47715 2 2 6.47715 2 12C2 17.5228 6.47715 22 12 22C17.5228 22 22 17.5228 22 12C22 6.47715 17.5228 2 12 2ZM0 12C0 5.37258 5.37258 0 12 0C18.6274 0 24 5.37258 24 12C24 18.6274 18.6274 24 12 24C5.37258 24 0 18.6274 0 12ZM13 17C13 17.5523 12.5523 18 12 18C11.4477 18 11 17.5523 11 17C11 16.4477 11.4477 16 12 16C12.5523 16 13 16.4477 13 17ZM11.8656 5.5C10.0068 5.5 8.5 7.00685 8.5 8.86563C8.5 9.41792 8.94771 9.86563 9.5 9.86563C10.0523 9.86563 10.5 9.41792 10.5 8.86563C10.5 8.11141 11.1114 7.5 11.8656 7.5H12.2251C12.9292 7.5 13.5 8.07079 13.5 8.77489V9.13202C13.5 9.47581 13.2771 9.7799 12.9492 9.88331C11.7889 10.2493 11 11.3254 11 12.542V13.5C11 14.0523 11.4477 14.5 12 14.5C12.5523 14.5 13 14.0523 13 13.5V12.542C13 12.1982 13.2229 11.8941 13.5508 11.7907C14.7111 11.4247 15.5 10.3486 15.5 9.13202V8.77489C15.5 6.96622 14.0338 5.5 12.2251 5.5H11.8656Z" fill="#140E17"/>
</mask>
<g mask="url(#mask0_7_998)">
<rect width="24" height="24" fill="#140E17"/>
</g>
</svg>
