<svg width="24" height="24" viewBox="0 0 24 24" fill="none" xmlns="http://www.w3.org/2000/svg">
<mask id="mask0_7_1009" style="mask-type:alpha" maskUnits="userSpaceOnUse" x="0" y="0" width="24" height="23">
<path fill-rule="evenodd" clip-rule="evenodd" d="M16.2857 23C15.1811 23 14.2857 22.1046 14.2857 21V16.0074H9.71428V21C9.71428 22.1046 8.81886 23 7.71429 23H2C0.89543 23 0 22.1046 0 21V11.7896C0 11.2518 0.216593 10.7367 0.600898 10.3605L10.6009 0.570835C11.3784 -0.190278 12.6216 -0.190278 13.3991 0.570835L23.3991 10.3605C23.7834 10.7367 24 11.2518 24 11.7896V21C24 22.1046 23.1046 23 22 23H16.2857ZM12 2L22 11.7896V21H16.2857V15.4059C16.2857 14.6335 15.6461 14.0074 14.8571 14.0074H9.14286C8.35388 14.0074 7.71429 14.6335 7.71429 15.4059V21H2V11.7896L12 2Z" fill="#140E17"/>
</mask>
<g mask="url(#mask0_7_1009)">
<rect width="24" height="24" fill="#140E17"/>
</g>
</svg>
