<svg width="24" height="24" viewBox="0 0 24 24" fill="none" xmlns="http://www.w3.org/2000/svg">
<mask id="mask0_374_3804" style="mask-type:alpha" maskUnits="userSpaceOnUse" x="2" y="1" width="20" height="21">
<path d="M11.293 1.29289C11.6835 0.902369 12.3167 0.902369 12.7072 1.29289L16.0001 4.58579C16.3906 4.97631 16.3906 5.60948 16.0001 6C15.6096 6.39052 14.9764 6.39052 14.5859 6L13 4.41414V10C13 10.5523 12.5523 11 12 11C11.4477 11 11 10.5523 11 10V4.41429L9.41429 6C9.02376 6.39052 8.3906 6.39052 8.00008 6C7.60955 5.60948 7.60955 4.97631 8.00007 4.58579L11.293 1.29289Z" fill="#140E17"/>
<path fill-rule="evenodd" clip-rule="evenodd" d="M3 8C2.44772 8 2 8.44772 2 9V21C2 21.5523 2.44772 22 3 22H21C21.5523 22 22 21.5523 22 21V9C22 8.44772 21.5523 8 21 8H16C15.4477 8 15 8.44772 15 9C15 9.55229 15.4477 10 16 10H18.3337L12.0004 14.75L5.66704 10H8C8.55228 10 9 9.55229 9 9C9 8.44772 8.55228 8 8 8H3ZM4 11.2497V20H20V11.2503L12.6004 16.8C12.2448 17.0667 11.7559 17.0667 11.4004 16.8L4 11.2497Z" fill="#140E17"/>
</mask>
<g mask="url(#mask0_374_3804)">
<rect width="24" height="24" fill="#140E17"/>
</g>
</svg>
