<svg width="387" height="48" viewBox="0 0 387 48" fill="none" xmlns="http://www.w3.org/2000/svg">
<g clip-path="url(#clip0_32_355)">
<path d="M9.25135 45.7049C6.33564 44.1749 4.05568 42.0546 2.43341 39.3443C0.811137 36.6339 0 33.5519 0 30.1202C0 26.6885 0.811137 23.6066 2.43341 20.918C4.05568 18.2295 6.33564 16.1312 9.25135 14.623C12.189 13.1148 15.4993 12.3497 19.2042 12.3497C22.9968 12.3497 26.2633 13.1803 29.0255 14.8634C31.7878 16.5465 33.7389 18.8634 34.9008 21.8361L25.8248 26.6011C24.3122 23.4973 22.0761 21.9454 19.1604 21.9454C17.0558 21.9454 15.3239 22.6667 13.9428 24.1093C12.5617 25.5519 11.8821 27.541 11.8821 30.0984C11.8821 32.6776 12.5617 34.7104 13.9428 36.1749C15.3239 37.6393 17.0558 38.3607 19.1604 38.3607C22.0761 38.3607 24.3122 36.8087 25.8248 33.7049L34.9008 38.4699C33.7389 41.4426 31.7878 43.7596 29.0255 45.4426C26.2633 47.1257 22.9968 47.9563 19.2042 47.9563C15.4993 48 12.189 47.235 9.25135 45.7049Z" fill="#A24DE8"/>
<path d="M76.1371 0.109314H87.7561V47.541H76.0275L76.1371 0.109314Z" fill="#A24DE8"/>
<path d="M91.9215 0.109314H103.76L103.716 47.541H91.9873L91.9215 0.109314Z" fill="#A24DE8"/>
<path d="M143.637 33.2459H119.303C119.807 35.0382 120.75 36.3934 122.175 37.3552C123.6 38.3169 125.376 38.7978 127.524 38.7978C129.124 38.7978 130.527 38.5574 131.689 38.0984C132.851 37.6393 134.035 36.8743 135.241 35.8033L141.423 42.4262C138.178 46.1639 133.421 48.0218 127.151 48.0218C123.249 48.0218 119.807 47.2568 116.848 45.7268C113.888 44.1967 111.586 42.0765 109.964 39.3661C108.342 36.6557 107.531 33.5738 107.531 30.1421C107.531 26.7541 108.32 23.694 109.898 21.0055C111.477 18.3169 113.669 16.1967 116.475 14.6667C119.281 13.1366 122.416 12.3716 125.924 12.3716C129.256 12.3716 132.281 13.0929 135 14.5137C137.718 15.9344 139.866 17.9891 141.445 20.6776C143.023 23.3661 143.813 26.5574 143.813 30.2514C143.813 30.3388 143.769 31.3224 143.637 33.2459ZM121.451 22.5355C120.246 23.6066 119.456 25.0492 119.128 26.8634H132.829C132.5 25.0492 131.733 23.6066 130.505 22.5355C129.3 21.4645 127.787 20.9399 125.967 20.9399C124.17 20.9399 122.657 21.4863 121.451 22.5355Z" fill="#A24DE8"/>
<path d="M155.914 45.7049C152.998 44.1749 150.718 42.0546 149.096 39.3443C147.474 36.6339 146.663 33.5519 146.663 30.1202C146.663 26.6885 147.474 23.6066 149.096 20.918C150.718 18.2295 152.998 16.1311 155.914 14.6229C158.83 13.1148 162.14 12.3716 165.845 12.3716C169.637 12.3716 172.904 13.2022 175.666 14.8852C178.428 16.5683 180.38 18.8852 181.541 21.8579L172.465 26.6229C170.953 23.5191 168.717 21.9672 165.801 21.9672C163.696 21.9672 161.965 22.6885 160.583 24.1311C159.202 25.5738 158.523 27.5628 158.523 30.1202C158.523 32.6994 159.202 34.7322 160.583 36.1967C161.965 37.6612 163.696 38.3825 165.801 38.3825C168.717 38.3825 170.953 36.8306 172.465 33.7268L181.541 38.4918C180.38 41.4645 178.428 43.7814 175.666 45.4645C172.904 47.1475 169.637 47.9781 165.845 47.9781C162.14 48 158.83 47.235 155.914 45.7049Z" fill="#A24DE8"/>
<path d="M185.093 13.0055V0.109314H196.821L196.712 12.7869H204.385V22.8416L196.821 22.8197V34.2732C196.821 35.4973 197.15 36.459 197.786 37.1804C198.422 37.8798 199.277 38.2295 200.351 38.2295C201.71 38.2295 203.332 37.8798 204.363 37.1366L207.256 45.5956C206.27 46.2295 204.626 46.7104 203.201 47.0601C201.776 47.4099 200.263 47.5629 198.663 47.5629C194.3 47.5629 190.946 46.47 188.6 44.2623C186.255 42.0547 185.071 38.776 185.071 34.4044V24.153L185.093 13.0055Z" fill="#A24DE8"/>
<path d="M265.395 12.9399L251.584 47.4317H239.483L225.715 12.9399H237.751L245.775 34.011L254.237 12.9399H265.395Z" fill="#A24DE8"/>
<path d="M300.888 33.2459H276.554C277.058 35.0382 278.001 36.3934 279.426 37.3552C280.851 38.3169 282.626 38.7978 284.775 38.7978C286.375 38.7978 287.778 38.5574 288.94 38.0984C290.124 37.6393 291.286 36.8743 292.492 35.8033L298.674 42.4262C295.429 46.1639 290.672 48.0219 284.402 48.0219C280.5 48.0219 277.058 47.2568 274.099 45.7268C271.139 44.1967 268.837 42.0765 267.215 39.3661C265.593 36.6557 264.781 33.5738 264.781 30.1421C264.781 26.7541 265.571 23.694 267.149 21.0055C268.727 18.3169 270.92 16.1967 273.726 14.6667C276.532 13.1366 279.667 12.3716 283.174 12.3716C286.507 12.3716 289.532 13.0929 292.25 14.5137C294.969 15.9344 297.117 17.9891 298.696 20.6776C300.274 23.3661 301.063 26.5574 301.063 30.2514C301.063 30.3388 300.998 31.3224 300.888 33.2459ZM278.68 22.5355C277.475 23.6066 276.685 25.0492 276.357 26.8634H290.058C289.729 25.0492 288.962 23.6066 287.734 22.5355C286.529 21.4645 285.016 20.9399 283.196 20.9399C281.421 20.9399 279.908 21.4863 278.68 22.5355Z" fill="#A24DE8"/>
<path d="M341.839 12.8088L334.539 33.2459H327.59L323.731 22.1203L319.719 33.2459H312.77L305.47 12.8088H312.266L316.453 25.1804L320.793 12.8088H326.91L331.141 25.2896L335.482 12.8088H341.839Z" fill="#A24DE8"/>
<path d="M362.709 24.765L347.802 24.8525C348.109 25.9016 348.701 26.7104 349.578 27.2787C350.455 27.847 351.551 28.1093 352.844 28.1093C353.831 28.1093 354.686 27.9563 355.387 27.6721C356.111 27.388 356.834 26.929 357.558 26.2951L361.372 30.1858C359.399 32.4153 356.483 33.5301 352.669 33.5519C350.279 33.5738 348.175 33.1366 346.355 32.2404C344.536 31.3443 343.111 30.0984 342.124 28.5027C341.116 26.9071 340.612 25.071 340.59 23.0383C340.568 21.0273 341.05 19.2131 342.015 17.6175C342.979 16.0219 344.316 14.7541 346.026 13.8361C347.736 12.918 349.666 12.459 351.792 12.4372C353.831 12.4153 355.694 12.8306 357.36 13.6612C359.026 14.4918 360.364 15.694 361.328 17.2896C362.315 18.8852 362.797 20.765 362.819 22.9508C362.819 23.0383 362.775 23.6284 362.709 24.765ZM349.074 18.5137C348.328 19.1475 347.868 20 347.671 21.0929L356.067 21.0273C355.848 19.9563 355.387 19.1038 354.642 18.4699C353.897 17.8579 352.976 17.5301 351.858 17.5519C350.74 17.5519 349.819 17.8798 349.074 18.5137Z" fill="#A24DE8"/>
<path d="M382.045 14.0984C383.58 14.929 384.786 16.1312 385.684 17.7049C386.583 19.2787 387.022 21.0929 387.022 23.1475C387.022 25.2241 386.583 27.0383 385.684 28.612C384.786 30.1858 383.58 31.4098 382.045 32.2623C380.511 33.1148 378.823 33.5301 376.959 33.5301C374.263 33.5301 372.246 32.7432 370.909 31.1913V33.1803H364.661V5.79236H371.259V14.929C372.64 13.5519 374.548 12.8525 376.959 12.8525C378.823 12.8525 380.511 13.2678 382.045 14.0984ZM380.445 26.9508C381.453 25.9891 381.958 24.6776 381.958 22.9727C381.958 21.3115 381.453 20 380.445 19.0601C379.436 18.1202 378.121 17.6394 376.543 17.6394C374.964 17.6394 373.649 18.1202 372.64 19.0601C371.632 20 371.128 21.3115 371.128 22.9727C371.128 24.6557 371.632 25.9891 372.64 26.9508C373.649 27.9126 374.964 28.3934 376.543 28.3934C378.121 28.3934 379.436 27.9126 380.445 26.9508Z" fill="#A24DE8"/>
<path d="M54.3681 12.4371C44.5687 12.4371 36.6108 20.3716 36.6108 30.1421C36.6108 39.9125 44.5687 47.847 54.3681 47.847C64.1675 47.847 72.1254 39.9125 72.1254 30.1421C72.1254 20.3716 64.1675 12.4371 54.3681 12.4371ZM54.6312 19.2131C57.5469 19.2131 59.8926 21.5737 59.8926 24.459C59.8926 27.3661 57.525 29.7049 54.6312 29.7049C51.7155 29.7049 49.3697 27.3442 49.3697 24.459C49.3478 21.5737 51.7155 19.2131 54.6312 19.2131ZM49.1067 38.7104C46.191 38.7104 43.8452 36.3497 43.8452 33.4645C43.8452 30.5574 46.2129 28.2186 49.1067 28.2186C52.0224 28.2186 54.3681 30.5792 54.3681 33.4645C54.3681 36.3716 52.0224 38.7104 49.1067 38.7104ZM59.6734 38.9727C56.7577 38.9727 54.4119 36.612 54.4119 33.7268C54.4119 30.8197 56.7796 28.4809 59.6734 28.4809C62.5891 28.4809 64.9348 30.8415 64.9348 33.7268C64.9348 36.612 62.5891 38.9727 59.6734 38.9727Z" fill="#A24DE8"/>
<path d="M228.872 37.2459C227.842 37.9672 226.219 38.3388 224.86 38.3388C223.786 38.3388 222.931 37.9891 222.295 37.2896C221.66 36.5902 221.331 35.6284 221.331 34.3825L221.265 12.765H209.602V34.5137C209.602 38.8852 210.786 42.1639 213.132 44.3716C215.477 46.5792 218.832 47.6721 223.194 47.6721C224.795 47.6721 226.307 47.4973 227.732 47.1694C229.157 46.8197 230.801 46.3388 231.788 45.7049L228.872 37.2459Z" fill="#A24DE8"/>
<path d="M215.434 10.5137C218.349 10.5137 220.695 8.153 220.695 5.26775C220.695 2.36065 218.327 0.0218506 215.434 0.0218506C212.518 0.0218506 210.172 2.38251 210.172 5.26775C210.15 8.153 212.518 10.5137 215.434 10.5137Z" fill="#A24DE8"/>
</g>
<defs>
<clipPath id="clip0_32_355">
<rect width="387" height="48" fill="white"/>
</clipPath>
</defs>
</svg>
