<svg width="48" height="48" viewBox="0 0 48 48" fill="none" xmlns="http://www.w3.org/2000/svg">
<path d="M23.6764 0.582825C10.6105 0.582825 0 11.1621 0 24.1894C0 37.2167 10.6105 47.7959 23.6764 47.7959C36.7423 47.7959 47.3528 37.2167 47.3528 24.1894C47.3528 11.1621 36.7423 0.582825 23.6764 0.582825ZM24.0272 9.61743C27.9148 9.61743 31.0424 12.765 31.0424 16.612C31.0424 20.4881 27.8856 23.6065 24.0272 23.6065C20.1396 23.6065 17.0119 20.459 17.0119 16.612C16.9827 12.765 20.1396 9.61743 24.0272 9.61743ZM16.6612 35.6138C12.7736 35.6138 9.64595 32.4663 9.64595 28.6193C9.64595 24.7431 12.8028 21.6247 16.6612 21.6247C20.5488 21.6247 23.6764 24.7723 23.6764 28.6193C23.6764 32.4954 20.5488 35.6138 16.6612 35.6138ZM30.7501 35.9635C26.8625 35.9635 23.7349 32.816 23.7349 28.969C23.7349 25.0928 26.8917 21.9744 30.7501 21.9744C34.6377 21.9744 37.7654 25.122 37.7654 28.969C37.7654 32.816 34.6377 35.9635 30.7501 35.9635Z" fill="#A24DE8"/>
</svg>
