<svg width="40" height="40" viewBox="0 0 40 40" fill="none" xmlns="http://www.w3.org/2000/svg">
<mask id="mask0_7_957" style="mask-type:alpha" maskUnits="userSpaceOnUse" x="0" y="7" width="40" height="27">
<path d="M1.65147 23.1431L1.28831 23.1224C1.34715 22.0917 1.4427 21.2628 1.61438 20.297C2.55699 14.9944 5.28909 10.518 8.79724 8.75502L8.97685 9.11243L8.79725 8.75502C9.68464 8.30909 10.6007 8.04599 11.599 7.94965L1.65147 23.1431ZM1.65147 23.1431L1.28831 23.1224C1.24694 23.8473 1.2683 25.2936 1.33097 25.8543C1.58476 28.1254 2.30138 29.9012 3.53736 31.182C4.25557 31.9264 5.06207 32.4372 6.02776 32.7571C6.77617 33.0051 7.45367 33.1067 8.32161 33.1067C10.0034 33.1065 11.257 32.6715 12.5612 31.6332C13.1714 31.1475 14.0733 30.1801 14.7327 29.3154L14.4147 29.0728M1.65147 23.1431L14.4147 29.0728M14.4147 29.0728L14.7327 29.3154C15.8995 27.7852 16.6556 26.558 19.0406 22.3421L20.0176 20.6152C20.4606 21.3482 21.6813 23.3866 22.4381 24.6573C24.4405 28.0194 25.6239 29.6975 26.9131 30.9643C28.2109 32.2395 29.4465 32.8716 31.071 33.063C31.5072 33.1143 32.3771 33.1211 32.7961 33.0755C33.9156 32.9538 34.9297 32.5695 35.7716 31.9373C36.0621 31.7192 36.5753 31.2208 36.8117 30.9285C37.761 29.7547 38.3793 28.1001 38.6139 26.2017C38.7918 24.7629 38.77 22.9658 38.5582 21.2503C37.9462 16.2938 35.779 11.9158 32.7149 9.611C30.8683 8.22191 28.734 7.65556 26.7169 8.0627C24.5932 8.49136 22.5907 10.063 20.5153 12.79L20.5153 12.79M14.4147 29.0728L20.5153 12.79M20.5153 12.79C20.5074 12.8004 20.4995 12.8108 20.4917 12.821M20.5153 12.79L20.4917 12.821M20.4917 12.821C17.7702 9.45795 15.2436 7.90815 12.237 7.93416C11.9679 7.93649 11.674 7.94241 11.599 7.94965L20.4917 12.821ZM34.3888 25.5919L34.7852 25.6454C34.5462 27.4176 33.8874 28.3974 32.7443 28.6812C32.4207 28.7616 31.8121 28.767 31.4916 28.6925L31.5822 28.3029C31.5822 28.3029 31.5822 28.3029 31.5822 28.3029C30.8796 28.1396 30.3552 27.7419 29.3516 26.3936C28.6291 25.423 27.0673 22.9656 25.2988 20.0108C23.955 17.7655 23.4984 17.0294 22.8154 16.0088L22.8154 16.0088L22.7745 15.9476L22.9401 15.6991C24.5303 13.314 25.8308 12.2042 27.0976 11.9306L27.0976 11.9306C27.2734 11.8926 27.3425 11.8853 27.8118 11.8944L27.8118 11.8944C28.1913 11.9017 28.3889 11.9196 28.4861 11.9413C29.3519 12.1343 30.1563 12.6104 30.9602 13.4413L31.2476 13.1632L30.9602 13.4413C31.505 14.0044 31.9385 14.5972 32.3631 15.3646L32.7131 15.171L32.3631 15.3647C33.4957 17.4117 34.1623 19.8443 34.3998 22.8662C34.4251 23.1883 34.4365 23.7684 34.4339 24.3299C34.4312 24.899 34.414 25.405 34.3888 25.5919ZM7.16624 28.4101C6.93783 28.2761 6.56237 27.9081 6.39052 27.6496L17.255 18.2969C16.3241 19.7322 15.4992 21.0169 14.5967 22.4373C13.6242 23.9676 13.3696 24.3568 12.8209 25.1518C11.255 27.4208 10.3272 28.345 9.32672 28.6326C8.56497 28.8515 7.78141 28.7708 7.16624 28.4101ZM9.21623 28.2481C8.5468 28.4405 7.87823 28.3639 7.36858 28.065C7.29605 28.0225 7.17239 27.9234 7.03718 27.7909C6.9044 27.6607 6.78856 27.5258 6.72361 27.4281L6.72359 27.4281C6.39209 26.9296 6.15987 26.2267 6.05721 25.3128L5.65971 25.3575L6.05721 25.3128C6.01659 24.9512 6.01554 23.6703 6.0588 23.1271L6.0588 23.1271C6.36142 19.3253 7.67083 15.9175 9.46977 14.0692C10.2993 13.2169 11.0324 12.8277 11.9055 12.7202C11.9055 12.7202 11.9056 12.7202 11.9057 12.7201C11.9071 12.72 11.9167 12.7192 11.9376 12.7185C11.9591 12.7178 11.9865 12.7175 12.0193 12.7176C12.0849 12.718 12.1655 12.7202 12.2511 12.724C12.4255 12.7318 12.603 12.7454 12.706 12.7597C13.6649 12.8929 14.5046 13.3546 15.549 14.3977L15.815 14.1313L15.549 14.3977C16.1695 15.0175 16.7703 15.742 17.4954 16.7506L17.6454 16.9592C17.5213 17.151 17.2302 17.6001 16.9195 18.0792L17.2401 18.2872L16.9195 18.0792C15.9878 19.5156 15.1623 20.8013 14.2591 22.2227C13.2874 23.7518 13.0361 24.1359 12.4917 24.9246L12.8032 25.1396L12.4917 24.9246C10.9155 27.2085 10.0605 28.0055 9.21623 28.2481Z" fill="#A24DE8" stroke="#A24DE8" stroke-width="0.8"/>
</mask>
<g mask="url(#mask0_7_957)">
<rect width="40" height="40" fill="#A24DE8"/>
</g>
</svg>
