<svg width="24" height="24" viewBox="0 0 24 24" fill="none" xmlns="http://www.w3.org/2000/svg">
<mask id="mask0_7_1002" style="mask-type:alpha" maskUnits="userSpaceOnUse" x="0" y="0" width="24" height="24">
<mask id="path-1-outside-1_7_1002" maskUnits="userSpaceOnUse" x="-0.727112" y="0.346558" width="24" height="24" fill="black">
<rect fill="white" x="-0.727112" y="0.346558" width="24" height="24"/>
<path fill-rule="evenodd" clip-rule="evenodd" d="M11.7039 2.34656C8.47109 2.34656 5.75524 4.77736 5.39824 7.99041L5.11226 10.5642C5.08258 10.8313 5.06774 10.9649 5.04867 11.0965C4.90936 12.0578 4.59614 12.9858 4.12433 13.8349C4.05973 13.9512 3.99059 14.0664 3.85231 14.2969L3.19583 15.391C2.48628 16.5736 2.13151 17.1649 2.3254 17.6308C2.35639 17.7053 2.39628 17.7757 2.44419 17.8406C2.74398 18.2466 3.43353 18.2466 4.81265 18.2466H8.29667C8.29668 18.694 8.38481 19.137 8.55602 19.5504C8.72725 19.9638 8.97822 20.3394 9.2946 20.6557C9.61098 20.9721 9.98658 21.2231 10.4 21.3943C10.8133 21.5655 11.2564 21.6537 11.7038 21.6537C12.1513 21.6537 12.5943 21.5655 13.0077 21.3943C13.4211 21.2231 13.7967 20.9721 14.113 20.6557C14.4294 20.3394 14.6804 19.9638 14.8516 19.5504C15.0228 19.137 15.111 18.694 15.111 18.2466H18.5952C19.9743 18.2466 20.6639 18.2466 20.9636 17.8406C21.0116 17.7757 21.0515 17.7053 21.0824 17.6308C21.2763 17.1649 20.9216 16.5736 20.212 15.391L19.5555 14.2969C19.4173 14.0664 19.3481 13.9512 19.2835 13.8349C18.8117 12.9858 18.4985 12.0578 18.3592 11.0965C18.3401 10.9649 18.3253 10.8314 18.2956 10.5644L18.2956 10.5642L18.0096 7.99041C17.6526 4.77736 14.9368 2.34656 11.7039 2.34656Z"/>
</mask>
<path d="M5.39824 7.99041L7.386 8.21128L7.38601 8.21128L5.39824 7.99041ZM5.11226 10.5642L3.12449 10.3433L3.12449 10.3433L5.11226 10.5642ZM5.04867 11.0965L7.028 11.3833V11.3833L5.04867 11.0965ZM4.12433 13.8349L5.87257 14.8063L5.87257 14.8063L4.12433 13.8349ZM3.85231 14.2969L2.13733 13.2679H2.13733L3.85231 14.2969ZM3.19583 15.391L4.91081 16.42H4.91082L3.19583 15.391ZM2.3254 17.6308L0.478904 18.3992H0.478904L2.3254 17.6308ZM2.44419 17.8406L4.05311 16.6526L4.05311 16.6526L2.44419 17.8406ZM8.29667 18.2466L10.2967 18.2466L10.2966 16.2466H8.29667V18.2466ZM8.55602 19.5504L10.4038 18.785L10.4038 18.785L8.55602 19.5504ZM10.4 21.3943L9.63459 23.2421L9.63459 23.2421L10.4 21.3943ZM13.0077 21.3943L13.773 23.2421L13.7731 23.2421L13.0077 21.3943ZM14.113 20.6557L15.5273 22.07L15.5273 22.07L14.113 20.6557ZM14.8516 19.5504L13.0039 18.785L13.0039 18.785L14.8516 19.5504ZM15.111 18.2466V16.2466H13.111L13.111 18.2466L15.111 18.2466ZM20.9636 17.8406L19.3547 16.6526L19.3547 16.6526L20.9636 17.8406ZM21.0824 17.6308L22.9289 18.3992L22.9289 18.3992L21.0824 17.6308ZM20.212 15.391L21.927 14.362L21.927 14.362L20.212 15.391ZM19.5555 14.2969L21.2705 13.2679V13.2679L19.5555 14.2969ZM19.2835 13.8349L21.0318 12.8635L21.0318 12.8635L19.2835 13.8349ZM18.3592 11.0965L20.3385 10.8097L20.3385 10.8097L18.3592 11.0965ZM18.2956 10.5644L20.2834 10.3435L20.2825 10.3354L20.2815 10.3273L18.2956 10.5644ZM18.2956 10.5642L16.3078 10.7851L16.3087 10.7932L16.3097 10.8013L18.2956 10.5642ZM18.0096 7.99041L16.0218 8.21128V8.21128L18.0096 7.99041ZM7.38601 8.21128C7.63047 6.01109 9.49019 4.34656 11.7039 4.34656V0.346558C7.45199 0.346558 3.88002 3.54363 3.41047 7.76955L7.38601 8.21128ZM7.10003 10.7851L7.386 8.21128L3.41047 7.76955L3.12449 10.3433L7.10003 10.7851ZM7.028 11.3833C7.05293 11.2113 7.07175 11.0396 7.10003 10.7851L3.12449 10.3433C3.09342 10.623 3.08256 10.7185 3.06934 10.8097L7.028 11.3833ZM5.87257 14.8063C6.46234 13.7449 6.85386 12.585 7.028 11.3833L3.06934 10.8097C2.96486 11.5307 2.72994 12.2267 2.37609 12.8635L5.87257 14.8063ZM5.5673 15.3258C5.69907 15.1062 5.78813 14.9583 5.87257 14.8063L2.37609 12.8635C2.33133 12.944 2.28211 13.0266 2.13733 13.2679L5.5673 15.3258ZM4.91082 16.42L5.5673 15.3258L2.13733 13.2679L1.48084 14.362L4.91082 16.42ZM4.1719 16.8624C4.27515 17.1105 4.28362 17.3416 4.26499 17.4937C4.24993 17.6166 4.22098 17.6579 4.25732 17.574C4.29163 17.4947 4.35552 17.3678 4.47249 17.1617C4.58814 16.958 4.72971 16.7218 4.91081 16.42L1.48084 14.362C1.15664 14.9023 0.80481 15.4805 0.586332 15.9853C0.367428 16.4911 0.0632663 17.4004 0.478904 18.3992L4.1719 16.8624ZM4.05311 16.6526C4.10103 16.7175 4.14091 16.7879 4.1719 16.8624L0.478904 18.3992C0.571874 18.6226 0.691535 18.834 0.835284 19.0286L4.05311 16.6526ZM4.81265 16.2466C4.46064 16.2466 4.18529 16.2465 3.9511 16.2408C3.71423 16.2351 3.57254 16.2246 3.48689 16.2133C3.3962 16.2012 3.4465 16.1976 3.55964 16.248C3.69967 16.3102 3.89348 16.4364 4.05311 16.6526L0.83528 19.0286C1.47789 19.8989 2.41409 20.1059 2.96046 20.1785C3.50576 20.2509 4.18252 20.2466 4.81265 20.2466V16.2466ZM8.29667 16.2466H4.81265V20.2466H8.29667V16.2466ZM6.29667 18.2467C6.29669 18.9567 6.43654 19.6598 6.70826 20.3158L10.4038 18.785C10.3331 18.6143 10.2967 18.4313 10.2967 18.2466L6.29667 18.2467ZM6.70826 20.3157C6.98 20.9718 7.37829 21.5679 7.88039 22.07L10.7088 19.2415C10.5781 19.1109 10.4745 18.9557 10.4038 18.785L6.70826 20.3157ZM7.88039 22.07C8.38249 22.5721 8.97857 22.9703 9.63459 23.2421L11.1653 19.5466C10.9946 19.4758 10.8395 19.3722 10.7088 19.2415L7.88039 22.07ZM9.63459 23.2421C10.2906 23.5138 10.9937 23.6537 11.7038 23.6537V19.6537C11.519 19.6537 11.336 19.6173 11.1653 19.5466L9.63459 23.2421ZM11.7038 23.6537C12.4139 23.6537 13.117 23.5138 13.773 23.2421L12.2423 19.5466C12.0716 19.6173 11.8886 19.6537 11.7038 19.6537V23.6537ZM13.7731 23.2421C14.4291 22.9703 15.0252 22.5721 15.5273 22.07L12.6988 19.2415C12.5682 19.3722 12.413 19.4758 12.2423 19.5466L13.7731 23.2421ZM15.5273 22.07C16.0294 21.5679 16.4276 20.9718 16.6994 20.3157L13.0039 18.785C12.9331 18.9557 12.8295 19.1109 12.6988 19.2415L15.5273 22.07ZM16.6994 20.3157C16.9711 19.6598 17.111 18.9567 17.111 18.2467L13.111 18.2466C13.111 18.4313 13.0746 18.6143 13.0039 18.785L16.6994 20.3157ZM18.5952 16.2466H15.111V20.2466H18.5952V16.2466ZM19.3547 16.6526C19.5144 16.4364 19.7082 16.3102 19.8482 16.248C19.9613 16.1976 20.0116 16.2012 19.921 16.2133C19.8353 16.2246 19.6936 16.2351 19.4567 16.2408C19.2226 16.2465 18.9472 16.2466 18.5952 16.2466V20.2466C19.2253 20.2466 19.9021 20.2509 20.4474 20.1785C20.9938 20.1059 21.9299 19.8989 22.5726 19.0286L19.3547 16.6526ZM19.2359 16.8624C19.2669 16.7879 19.3068 16.7175 19.3547 16.6526L22.5726 19.0286C22.7163 18.834 22.836 18.6226 22.9289 18.3992L19.2359 16.8624ZM18.497 16.42C18.6781 16.7218 18.8197 16.958 18.9354 17.1617C19.0523 17.3678 19.1162 17.4947 19.1505 17.574C19.1869 17.6579 19.1579 17.6166 19.1429 17.4937C19.1242 17.3416 19.1327 17.1105 19.2359 16.8624L22.9289 18.3992C23.3446 17.4004 23.0404 16.4911 22.8215 15.9853C22.603 15.4805 22.2512 14.9023 21.927 14.362L18.497 16.42ZM17.8405 15.3258L18.497 16.42L21.927 14.362L21.2705 13.2679L17.8405 15.3258ZM17.5353 14.8063C17.6197 14.9583 17.7088 15.1062 17.8405 15.3258L21.2705 13.2679C21.1257 13.0265 21.0765 12.944 21.0318 12.8635L17.5353 14.8063ZM16.3798 11.3833C16.554 12.585 16.9455 13.7449 17.5353 14.8063L21.0318 12.8635C20.6779 12.2267 20.443 11.5307 20.3385 10.8097L16.3798 11.3833ZM16.3078 10.7852C16.3361 11.0397 16.3549 11.2113 16.3798 11.3833L20.3385 10.8097C20.3253 10.7185 20.3144 10.6231 20.2834 10.3435L16.3078 10.7852ZM16.3097 10.8013L16.3097 10.8015L20.2815 10.3273L20.2815 10.3271L16.3097 10.8013ZM16.0218 8.21128L16.3078 10.7851L20.2833 10.3433L19.9974 7.76955L16.0218 8.21128ZM11.7039 4.34656C13.9177 4.34656 15.7774 6.01109 16.0218 8.21128L19.9974 7.76955C19.5278 3.54363 15.9558 0.346558 11.7039 0.346558V4.34656Z" fill="#140E17" mask="url(#path-1-outside-1_7_1002)"/>
</mask>
<g mask="url(#mask0_7_1002)">
<rect width="24" height="24" fill="#140E17"/>
</g>
</svg>
