<svg width="24" height="24" viewBox="0 0 24 24" fill="none" xmlns="http://www.w3.org/2000/svg">
<mask id="mask0_201_2282" style="mask-type:alpha" maskUnits="userSpaceOnUse" x="1" y="2" width="22" height="20">
<path fill-rule="evenodd" clip-rule="evenodd" d="M12 8.70588C9.5454 8.70588 7.55556 10.7074 7.55556 13.1765C7.55556 15.6455 9.5454 17.6471 12 17.6471C14.4546 17.6471 16.4444 15.6455 16.4444 13.1765C16.4444 10.7074 14.4546 8.70588 12 8.70588ZM9.77778 13.1765C9.77778 11.942 10.7727 10.9412 12 10.9412C13.2273 10.9412 14.2222 11.942 14.2222 13.1765C14.2222 14.411 13.2273 15.4118 12 15.4118C10.7727 15.4118 9.77778 14.411 9.77778 13.1765Z" fill="black"/>
<path fill-rule="evenodd" clip-rule="evenodd" d="M9.77778 2C7.93683 2 6.44444 3.50116 6.44444 5.35294H4.33333C2.49238 5.35294 1 6.8541 1 8.70588V18.6471C1 20.4988 2.49238 22 4.33333 22H19.6667C21.5076 22 23 20.4988 23 18.6471V8.70588C23 6.8541 21.5076 5.35294 19.6667 5.35294H17.5556C17.5556 3.50116 16.0632 2 14.2222 2H9.77778ZM15.3333 5.35294C15.3333 4.73568 14.8359 4.23529 14.2222 4.23529H9.77778C9.16413 4.23529 8.66667 4.73568 8.66667 5.35294V6.58823C8.66667 7.14052 8.21895 7.58824 7.66667 7.58824H4.33333C3.71968 7.58824 3.22222 8.08862 3.22222 8.70588V18.6471C3.22222 19.2643 3.71968 19.7647 4.33333 19.7647H19.6667C20.2803 19.7647 20.7778 19.2643 20.7778 18.6471V8.70588C20.7778 8.08862 20.2803 7.58824 19.6667 7.58824H16.3333C15.781 7.58824 15.3333 7.14052 15.3333 6.58823V5.35294Z" fill="black"/>
</mask>
<g mask="url(#mask0_201_2282)">
<rect x="-1.33325" y="-0.852875" width="26.6667" height="26.8235" fill="#140E17"/>
</g>
</svg>
