<svg width="24" height="24" viewBox="0 0 24 24" fill="none" xmlns="http://www.w3.org/2000/svg">
<mask id="mask0_866_5352" style="mask-type:alpha" maskUnits="userSpaceOnUse" x="2" y="2" width="20" height="20">
<path d="M10.8363 2.39999C15.4955 2.39999 19.2725 6.17704 19.2725 10.8363C19.2725 12.7852 18.6116 14.5799 17.5017 16.0082L20.8545 19.3628C21.2663 19.7748 21.2662 20.4425 20.8543 20.8543C20.4425 21.2662 19.7748 21.2663 19.3628 20.8545L16.0082 17.5017C14.5799 18.6116 12.7852 19.2725 10.8363 19.2725C6.17704 19.2725 2.39999 15.4955 2.39999 10.8363C2.39999 6.17704 6.17704 2.39999 10.8363 2.39999ZM10.8363 4.50906C7.34184 4.50906 4.50906 7.34184 4.50906 10.8363C4.50906 14.3307 7.34184 17.1635 10.8363 17.1635C14.3307 17.1635 17.1635 14.3307 17.1635 10.8363C17.1635 7.34184 14.3307 4.50906 10.8363 4.50906Z" fill="#2B2D33"/>
</mask>
<g mask="url(#mask0_866_5352)">
<rect width="24" height="24" fill="#140E17"/>
</g>
</svg>
