<svg width="20" height="20" viewBox="0 0 20 20" fill="none" xmlns="http://www.w3.org/2000/svg">
<mask id="mask0_335_2808" style="mask-type:alpha" maskUnits="userSpaceOnUse" x="1" y="4" width="18" height="13">
<path fill-rule="evenodd" clip-rule="evenodd" d="M2.5 4H8.50004V6H2.5C1.94772 6 1.5 5.55228 1.5 5C1.5 4.44772 1.94772 4 2.5 4ZM3.5 9H8.50004V11H3.5C2.94772 11 2.5 10.5523 2.5 10C2.5 9.44772 2.94772 9 3.5 9ZM7.36101 16L5.0972 14.0845C4.74555 14.2394 4.50006 14.591 4.50006 15C4.50006 15.5523 4.94778 16 5.50006 16H7.36101ZM13.3541 16.7634C13.7269 17.0789 14.2731 17.0789 14.6459 16.7634L18.6459 13.3788C19.0675 13.022 19.1201 12.391 18.7634 11.9694C18.4066 11.5478 17.7757 11.4953 17.3541 11.852L15 13.8439V5C15 4.44771 14.5523 4 14 4C13.4477 4 13 4.44772 13 5V13.8439L10.6459 11.852C10.2243 11.4953 9.59336 11.5478 9.23661 11.9694C8.87987 12.391 8.93245 13.022 9.35406 13.3788L13.3541 16.7634Z" fill="#140E17"/>
</mask>
<g mask="url(#mask0_335_2808)">
<rect width="20" height="20" fill="#140E17"/>
</g>
</svg>
