<svg width="20" height="20" viewBox="0 0 20 20" fill="none" xmlns="http://www.w3.org/2000/svg">
<mask id="mask0_335_2807" style="mask-type:alpha" maskUnits="userSpaceOnUse" x="1" y="3" width="18" height="13">
<path fill-rule="evenodd" clip-rule="evenodd" d="M14.6459 3.23661C14.2731 2.92113 13.7269 2.92113 13.3541 3.23661L9.35406 6.62123C8.93245 6.97797 8.87987 7.60895 9.23661 8.03056C9.59336 8.45217 10.2243 8.50475 10.6459 8.148L13 6.15611L13 15C13 15.5523 13.4477 16 14 16C14.5523 16 15 15.5523 15 15L15 6.15611L17.3541 8.148C17.7757 8.50475 18.4066 8.45217 18.7634 8.03056C19.1201 7.60895 19.0675 6.97798 18.6459 6.62123L14.6459 3.23661ZM5.50006 4H8.9519L6.58826 6L5.50006 6C4.94777 6 4.50006 5.55229 4.50006 5C4.50006 4.44772 4.94777 4 5.50006 4ZM3.5 9L9.50002 9V11L3.5 11C2.94771 11 2.5 10.5523 2.5 10C2.5 9.44772 2.94771 9 3.5 9ZM2.5 14L9.50002 14V16L2.5 16C1.94771 16 1.5 15.5523 1.5 15C1.5 14.4477 1.94771 14 2.5 14Z" fill="#140E17"/>
</mask>
<g mask="url(#mask0_335_2807)">
<rect width="20" height="20" fill="#140E17"/>
</g>
</svg>
