<svg width="24" height="24" viewBox="0 0 24 24" fill="none" xmlns="http://www.w3.org/2000/svg">
<mask id="mask0_221_2276" style="mask-type:alpha" maskUnits="userSpaceOnUse" x="0" y="0" width="24" height="24">
<path fill-rule="evenodd" clip-rule="evenodd" d="M22 12C22 17.5228 17.5228 22 12 22C6.47715 22 2 17.5228 2 12C2 6.47715 6.47715 2 12 2C17.5228 2 22 6.47715 22 12ZM24 12C24 18.6274 18.6274 24 12 24C5.37258 24 0 18.6274 0 12C0 5.37258 5.37258 0 12 0C18.6274 0 24 5.37258 24 12ZM17.7118 9.70241C18.0997 9.30931 18.0955 8.67616 17.7024 8.28823C17.3093 7.9003 16.6762 7.90449 16.2882 8.29759L11.0915 13.5636L10.7143 13.1679L8.72391 11.0793C8.34289 10.6795 7.70991 10.6643 7.31011 11.0453C6.9103 11.4263 6.89507 12.0593 7.27609 12.4591L9.26646 14.5476L10.043 15.3625L10.2721 15.6028L10.3337 15.6675L10.3496 15.6842L10.3537 15.6885L10.3547 15.6895L10.3549 15.6898L10.355 15.6899L11.0789 15L10.355 15.6899C10.5417 15.8857 10.7997 15.9976 11.0702 16C11.3408 16.0023 11.6007 15.895 11.7907 15.7024L17.7118 9.70241Z" fill="black"/>
</mask>
<g mask="url(#mask0_221_2276)">
<rect width="24" height="24" fill="#140E17"/>
</g>
</svg>
